<?xml version="1.0" standalone="no"?>
<!DOCTYPE svg PUBLIC "-//W3C//DTD SVG 20010904//EN"
 "http://www.w3.org/TR/2001/REC-SVG-20010904/DTD/svg10.dtd">
<svg version="1.0" xmlns="http://www.w3.org/2000/svg"
 width="700.000000pt" height="300.000000pt" viewBox="0 0 700.000000 300.000000"
 preserveAspectRatio="xMidYMid meet">

<g transform="translate(0.000000,300.000000) scale(0.100000,-0.100000)"
fill="#000000" stroke="none">
<path d="M1389 2810 c-122 -64 -161 -214 -86 -325 12 -18 105 -119 207 -225
102 -106 197 -211 212 -232 37 -57 51 -117 46 -196 -6 -78 -33 -139 -87 -195
-38 -41 -104 -81 -115 -70 -3 4 -6 116 -6 250 0 133 -2 243 -5 243 -3 0 -45
-24 -93 -54 -335 -207 -585 -524 -700 -886 -16 -52 -33 -110 -37 -128 l-7 -34
346 177 346 177 0 -494 0 -494 75 -74 75 -74 0 606 0 607 83 43 c228 118 327
350 248 580 -30 88 -58 124 -270 344 -111 115 -204 219 -207 232 -15 55 37
111 91 98 22 -6 105 -88 381 -377 76 -81 140 -143 142 -139 7 17 -320 542
-366 587 -19 20 -53 44 -76 54 -55 25 -149 24 -197 -1z m9 -1336 c-7 -6 -107
-60 -222 -119 l-209 -108 42 79 c80 149 194 292 319 400 l77 68 3 -154 c2
-115 -1 -157 -10 -166z"/>
<path d="M6132 1770 c-127 -23 -232 -80 -280 -152 -39 -59 -43 -155 -10 -218
31 -57 105 -114 188 -142 58 -21 84 -23 235 -23 149 1 177 4 227 22 77 29 138
72 172 122 42 60 48 158 14 221 -55 102 -203 169 -388 175 -58 2 -129 0 -158
-5z m303 -86 c100 -35 155 -88 163 -159 6 -61 -3 -89 -43 -134 -132 -146 -544
-124 -619 33 -22 47 -21 121 4 161 32 52 104 92 215 119 44 11 231 -2 280 -20z"/>
<path d="M2987 1752 c-15 -16 -17 -50 -17 -270 l0 -252 100 0 100 0 0 120 c0
99 3 122 15 126 9 4 72 -23 144 -60 71 -36 141 -66 155 -66 14 0 85 29 156 65
71 36 136 65 145 65 12 0 15 -22 17 -122 l3 -123 103 -3 102 -3 0 254 c0 233
-1 255 -18 270 -10 10 -26 17 -35 17 -9 0 -118 -54 -242 -120 l-225 -121 -226
121 c-124 66 -234 120 -243 120 -10 0 -25 -8 -34 -18z"/>
<path d="M4180 1500 l0 -270 105 0 105 0 -2 268 -3 267 -102 3 -103 3 0 -271z"/>
<path d="M4570 1750 c-19 -19 -20 -33 -20 -270 l0 -250 105 0 105 0 0 129 c0
72 4 132 9 136 8 5 138 -52 490 -215 107 -50 116 -52 140 -39 l26 15 3 257 2
257 -105 0 -105 0 0 -130 c0 -156 7 -151 -137 -84 -276 129 -466 214 -479 214
-8 0 -23 -9 -34 -20z"/>
<path d="M5600 1500 l0 -270 45 0 45 0 0 270 0 270 -45 0 -45 0 0 -270z"/>
</g>
</svg>
