<?xml version="1.0" encoding="UTF-8"?>
<svg xmlns="http://www.w3.org/2000/svg" xmlns:xlink="http://www.w3.org/1999/xlink" width="80px" height="34px" viewBox="0 0 79 34" version="1.1">
<g id="surface1">
<path style=" stroke:none;fill-rule:nonzero;fill:rgb(0%,0%,0%);fill-opacity:1;" d="M 15.675781 2.152344 C 14.300781 2.878906 13.859375 4.578125 14.707031 5.835938 C 14.839844 6.039062 15.890625 7.183594 17.042969 8.386719 C 18.191406 9.589844 19.265625 10.777344 19.433594 11.015625 C 19.851562 11.660156 20.007812 12.34375 19.953125 13.238281 C 19.886719 14.121094 19.582031 14.8125 18.972656 15.449219 C 18.542969 15.910156 17.796875 16.367188 17.671875 16.242188 C 17.640625 16.195312 17.605469 14.925781 17.605469 13.40625 C 17.605469 11.898438 17.582031 10.652344 17.550781 10.652344 C 17.515625 10.652344 17.042969 10.925781 16.5 11.265625 C 12.71875 13.613281 9.898438 17.203125 8.601562 21.308594 C 8.417969 21.894531 8.226562 22.554688 8.183594 22.757812 L 8.101562 23.144531 L 15.914062 19.128906 L 15.914062 30.328125 L 16.757812 31.167969 L 17.605469 32.003906 L 17.605469 18.257812 L 18.542969 17.769531 C 21.117188 16.433594 22.234375 13.804688 21.339844 11.199219 C 21.003906 10.199219 20.6875 9.792969 18.292969 7.296875 C 17.042969 5.996094 15.992188 4.816406 15.957031 4.667969 C 15.789062 4.046875 16.375 3.410156 16.984375 3.558594 C 17.234375 3.625 18.171875 4.554688 21.285156 7.832031 C 22.140625 8.75 22.863281 9.453125 22.886719 9.40625 C 22.964844 9.214844 19.277344 3.265625 18.757812 2.753906 C 18.542969 2.527344 18.160156 2.253906 17.898438 2.140625 C 17.277344 1.859375 16.21875 1.871094 15.675781 2.152344 Z M 15.777344 17.292969 C 15.699219 17.363281 14.570312 17.976562 13.273438 18.644531 L 10.914062 19.867188 L 11.386719 18.972656 C 12.289062 17.285156 13.578125 15.664062 14.988281 14.4375 L 15.855469 13.667969 L 15.890625 15.414062 C 15.914062 16.714844 15.878906 17.191406 15.777344 17.292969 Z M 15.777344 17.292969 "/>
<path style=" stroke:none;fill-rule:nonzero;fill:rgb(0%,0%,0%);fill-opacity:1;" d="M 69.203125 13.941406 C 67.769531 14.199219 66.585938 14.847656 66.042969 15.664062 C 65.605469 16.332031 65.558594 17.417969 65.929688 18.132812 C 66.28125 18.78125 67.117188 19.425781 68.054688 19.742188 C 68.707031 19.980469 69 20.003906 70.703125 20.003906 C 72.386719 19.992188 72.703125 19.957031 73.265625 19.753906 C 74.136719 19.425781 74.824219 18.9375 75.207031 18.371094 C 75.683594 17.691406 75.75 16.582031 75.367188 15.867188 C 74.746094 14.710938 73.074219 13.953125 70.988281 13.882812 C 70.332031 13.859375 69.53125 13.882812 69.203125 13.941406 Z M 72.625 14.914062 C 73.753906 15.3125 74.371094 15.910156 74.464844 16.714844 C 74.53125 17.40625 74.429688 17.726562 73.976562 18.234375 C 72.488281 19.890625 67.839844 19.640625 66.992188 17.863281 C 66.742188 17.328125 66.753906 16.488281 67.039062 16.035156 C 67.398438 15.449219 68.210938 14.992188 69.464844 14.6875 C 69.960938 14.5625 72.070312 14.710938 72.625 14.914062 Z M 72.625 14.914062 "/>
<path style=" stroke:none;fill-rule:nonzero;fill:rgb(0%,0%,0%);fill-opacity:1;" d="M 33.710938 14.144531 C 33.542969 14.324219 33.519531 14.710938 33.519531 17.203125 L 33.519531 20.058594 L 35.777344 20.058594 L 35.777344 18.699219 C 35.777344 17.578125 35.808594 17.316406 35.945312 17.273438 C 36.046875 17.226562 36.757812 17.53125 37.570312 17.953125 C 38.371094 18.359375 39.160156 18.699219 39.320312 18.699219 C 39.476562 18.699219 40.277344 18.371094 41.078125 17.964844 C 41.882812 17.554688 42.613281 17.226562 42.714844 17.226562 C 42.851562 17.226562 42.886719 17.476562 42.910156 18.609375 L 42.941406 20.003906 L 44.105469 20.039062 L 45.253906 20.070312 L 45.253906 17.191406 C 45.253906 14.550781 45.246094 14.300781 45.050781 14.132812 C 44.941406 14.019531 44.757812 13.941406 44.65625 13.941406 C 44.554688 13.941406 43.324219 14.550781 41.925781 15.300781 L 39.386719 16.671875 L 36.835938 15.300781 C 35.4375 14.550781 34.195312 13.941406 34.09375 13.941406 C 33.980469 13.941406 33.8125 14.03125 33.710938 14.144531 Z M 33.710938 14.144531 "/>
<path style=" stroke:none;fill-rule:nonzero;fill:rgb(0%,0%,0%);fill-opacity:1;" d="M 47.175781 17 L 47.175781 20.058594 L 49.542969 20.058594 L 49.523438 17.023438 L 49.488281 13.996094 L 48.335938 13.960938 L 47.175781 13.929688 Z M 47.175781 17 "/>
<path style=" stroke:none;fill-rule:nonzero;fill:rgb(0%,0%,0%);fill-opacity:1;" d="M 51.574219 14.167969 C 51.359375 14.382812 51.351562 14.539062 51.351562 17.226562 L 51.351562 20.058594 L 53.71875 20.058594 L 53.71875 18.597656 C 53.71875 17.78125 53.765625 17.101562 53.820312 17.058594 C 53.910156 17 55.378906 17.644531 59.351562 19.492188 C 60.558594 20.058594 60.660156 20.082031 60.929688 19.933594 L 61.226562 19.765625 L 61.257812 16.851562 L 61.28125 13.941406 L 58.910156 13.941406 L 58.910156 15.414062 C 58.910156 17.179688 58.992188 17.125 57.367188 16.367188 C 54.25 14.902344 52.105469 13.941406 51.960938 13.941406 C 51.871094 13.941406 51.699219 14.042969 51.574219 14.167969 Z M 51.574219 14.167969 "/>
<path style=" stroke:none;fill-rule:nonzero;fill:rgb(0%,0%,0%);fill-opacity:1;" d="M 63.199219 17 L 63.199219 20.058594 L 64.214844 20.058594 L 64.214844 13.941406 L 63.199219 13.941406 Z M 63.199219 17 "/>
</g>
</svg>
